<?xml version="1.0" encoding="UTF-8" standalone="no"?>
<!-- Created with Inkscape (http://www.inkscape.org/) -->

<svg
   xmlns:dc="http://purl.org/dc/elements/1.1/"
   xmlns:cc="http://creativecommons.org/ns#"
   xmlns:rdf="http://www.w3.org/1999/02/22-rdf-syntax-ns#"
   xmlns:svg="http://www.w3.org/2000/svg"
   xmlns="http://www.w3.org/2000/svg"
   xmlns:sodipodi="http://sodipodi.sourceforge.net/DTD/sodipodi-0.dtd"
   xmlns:inkscape="http://www.inkscape.org/namespaces/inkscape"
   id="svg3039"
   version="1.1"
   inkscape:version="0.48.4 r9939"
   width="380"
   height="317"
   sodipodi:docname="greek.svg">
  <metadata
     id="metadata3045">
    <rdf:RDF>
      <cc:Work
         rdf:about="">
        <dc:format>image/svg+xml</dc:format>
        <dc:type
           rdf:resource="http://purl.org/dc/dcmitype/StillImage" />
        <dc:title></dc:title>
      </cc:Work>
    </rdf:RDF>
  </metadata>
  <defs
     id="defs3043" />
  <sodipodi:namedview
     pagecolor="#ffffff"
     bordercolor="#666666"
     borderopacity="1"
     objecttolerance="10"
     gridtolerance="10"
     guidetolerance="10"
     inkscape:pageopacity="0"
     inkscape:pageshadow="2"
     inkscape:window-width="1365"
     inkscape:window-height="795"
     id="namedview3041"
     showgrid="false"
     inkscape:zoom="0.37223975"
     inkscape:cx="-286.10918"
     inkscape:cy="41.146518"
     inkscape:window-x="0"
     inkscape:window-y="0"
     inkscape:window-maximized="0"
     inkscape:current-layer="svg3039" />
  <path
     style="fill:#000000"
     d="m -680.00559,241.6588 c -0.76087,-1.98276 -0.67167,-4.7566 0.19812,-6.16409 1.01563,-1.64333 33.84118,-2.37414 91.7335,-2.04229 88.2733,0.506 90.15196,0.62345 90.15196,5.63603 0,5.01259 -1.88242,5.13026 -90.35015,5.64731 -75.68924,0.44238 -90.57463,-0.0569 -91.73353,-3.07696 z m 8.49042,-13.20062 c -0.95771,-0.9577 -1.74129,-3.27705 -1.74129,-5.15411 0,-2.77523 15.81566,-3.41284 84.65541,-3.41284 79.24613,0 84.60036,0.28622 83.79357,4.47935 -0.7962,4.13803 -7.11408,4.53077 -82.91415,5.15411 -45.12876,0.37112 -82.83586,-0.10881 -83.79354,-1.06651 z m 11.56527,-50.59197 c 0.49347,-23.60897 -0.15076,-36.75046 -1.78823,-36.47471 -1.4078,0.23708 -2.55963,-1.29669 -2.55963,-3.40838 0,-2.98623 3.41286,-3.83944 15.35777,-3.83944 11.94494,0 15.35777,0.85321 15.35777,3.83944 0,2.11169 -1.15183,3.64547 -2.55963,3.40838 -1.63742,-0.27575 -2.28167,12.86574 -1.7882,36.47471 l 0.77142,36.90577 -11.78136,0 -11.78133,0 z m 40.95232,0.33175 c 0.66051,-31.5087 0.21373,-36.84454 -3.06631,-36.62839 -2.11169,0.13914 -3.83944,-1.47476 -3.83944,-3.58645 0,-2.89063 3.72933,-4.0319 15.09093,-4.61822 16.3154,-0.84196 23.68703,2.64232 16.90443,7.99007 -3.07376,2.42351 -3.83945,9.91851 -3.83945,37.58221 l 0,34.55498 -11.01165,0.79359 -11.01165,0.79359 z m 40.44738,1.66131 c 0,-29.51365 -0.65422,-35.3911 -4.23051,-38.00613 -7.2677,-5.31427 -1.35248,-8.98928 14.46902,-8.98928 15.8215,0 21.73673,3.67501 14.46902,8.98928 -3.57629,2.61503 -4.2305,8.49248 -4.2305,38.00613 l 0,34.91271 -10.23852,0 -10.23851,0 z m 39.4471,31.40435 c -0.74045,-1.9296 -0.99227,-18.53745 -0.55956,-36.90633 0.50122,-21.27877 -0.14206,-33.24136 -1.77293,-32.96635 -1.40779,0.2374 -2.55963,-1.29613 -2.55963,-3.40782 0,-2.98526 3.40894,-3.83944 15.32271,-3.83944 13.00726,0 15.46394,0.73332 16.2573,4.85282 0.62575,3.24933 -0.20836,4.41269 -2.52459,3.52081 -2.82849,-1.08917 -3.31848,5.3759 -2.68771,35.46132 l 0.77142,36.79335 -10.45038,0 c -6.48965,0 -10.96058,-1.32967 -11.79663,-3.50836 z m -132.41207,-85.19059 c -0.95771,-0.95769 -1.74129,-2.70113 -1.74129,-3.87429 0,-1.17316 38.10647,-2.13302 84.68104,-2.13302 66.60678,0 84.45358,0.6829 83.61536,3.19953 -0.81658,2.45169 -20.20259,3.35725 -82.93978,3.8743 -45.03072,0.37111 -82.65765,-0.10881 -83.61533,-1.06652 z m 41.49839,-32.121813 41.95986,-20.542726 41.22807,20.598925 41.22806,20.598924 -83.18793,-0.0562 -83.18793,-0.0562 z"
     id="path3049"
     inkscape:connector-curvature="0"
     sodipodi:nodetypes="ccssscccsssscssssssscccssssssscccsssssscccssscssscscsscsssscccccccc" />
  <g
     id="g3823"
     transform="translate(550.72034,45.669492)"
     inkscape:export-filename="/home/abraao/Pictures/greek_icone.png"
     inkscape:export-xdpi="90"
     inkscape:export-ydpi="90">
    <rect
       y="24.790047"
       x="-468.22824"
       height="126"
       width="126"
       id="rect3051"
       style="opacity:0;fill:#c2514e;fill-opacity:1;stroke:#000000;stroke-width:2;stroke-linecap:round;stroke-miterlimit:4;stroke-opacity:1;stroke-dasharray:none" />
    <path
       style="fill:#000000"
       d="m -458.79895,136.48278 c -0.44898,-1.17002 -0.39635,-2.80685 0.11691,-3.6374 0.59932,-0.96972 19.96951,-1.40097 54.13148,-1.20514 52.08963,0.29858 53.19821,0.36789 53.19821,3.32579 0,2.9579 -1.1108,3.02734 -53.31516,3.33245 -44.66384,0.26104 -53.44764,-0.0336 -54.1315,-1.8157 z m 5.01016,-7.78962 c -0.56514,-0.56513 -1.02753,-1.93377 -1.02753,-3.04142 0,-1.63764 9.33274,-2.01389 49.95473,-2.01389 46.76274,0 49.92225,0.16889 49.44616,2.64324 -0.46983,2.44183 -4.19798,2.67358 -48.92722,3.04141 -26.63025,0.219 -48.88102,-0.0642 -49.44614,-0.62934 z m 6.8246,-29.854068 c 0.2912,-13.931534 -0.089,-21.686261 -1.05522,-21.523542 -0.83074,0.1399 -1.51043,-0.76517 -1.51043,-2.011268 0,-1.762159 2.01391,-2.265634 9.06255,-2.265634 7.04864,0 9.06254,0.503475 9.06254,2.265634 0,1.246098 -0.67969,2.151174 -1.51043,2.011268 -0.96623,-0.162719 -1.3464,7.592008 -1.0552,21.523542 l 0.45521,21.777908 -6.95212,0 -6.95211,0 z m 24.16576,0.195764 c 0.38976,-18.593124 0.12612,-21.741777 -1.80941,-21.614228 -1.2461,0.08211 -2.26564,-0.870248 -2.26564,-2.116346 0,-1.705746 2.20066,-2.379203 8.90508,-2.725188 9.62764,-0.496836 13.9776,1.55922 9.97522,4.7149 -1.81381,1.430101 -2.26564,5.852863 -2.26564,22.177072 l 0,20.390724 -6.49792,0.46829 -6.49791,0.46829 z m 23.8678,0.980334 c 0,-17.415859 -0.38606,-20.884112 -2.49641,-22.427228 -4.28863,-3.135924 -0.79809,-5.304529 8.5381,-5.304529 9.33619,0 12.82673,2.168605 8.53809,5.304529 -2.11035,1.543116 -2.49639,5.011369 -2.49639,22.427228 l 0,20.60181 -6.0417,0 -6.04169,0 z m 23.27753,18.53155 c -0.43694,-1.13865 -0.58553,-10.93886 -0.33019,-21.778243 0.29576,-12.556495 -0.0838,-19.615559 -1.0462,-19.453277 -0.83073,0.140088 -1.51042,-0.76484 -1.51042,-2.010938 0,-1.761586 2.01159,-2.265634 9.04185,-2.265634 7.67552,0 9.12519,0.432729 9.59335,2.863625 0.36925,1.917413 -0.12295,2.603906 -1.48975,2.077612 -1.66908,-0.642714 -1.95822,3.172291 -1.586,20.925546 l 0.45521,21.711569 -6.16672,0 c -3.82951,0 -6.46778,-0.78463 -6.96113,-2.07026 z m -78.13569,-50.270537 c -0.56514,-0.565132 -1.02753,-1.593923 -1.02753,-2.286201 0,-0.692278 22.48644,-1.258686 49.96985,-1.258686 39.30433,0 49.83564,0.402979 49.34101,1.888029 -0.48186,1.446729 -11.92145,1.981096 -48.94235,2.286201 -26.5724,0.218995 -48.77586,-0.06421 -49.34098,-0.629343 z m 24.48799,-18.954922 24.7603,-12.122159 24.32847,12.155322 24.32847,12.15532 -49.08877,-0.03317 -49.08878,-0.03317 z"
       id="path3053"
       inkscape:connector-curvature="0"
       sodipodi:nodetypes="ccssscccsssscssssssscccssssssscccsssssscccssscssscscsscsssscccccccc" />
  </g>
</svg>
